<svg xmlns="http://www.w3.org/2000/svg" viewBox="0 0 102.54 101.92"><defs><style>.cls-1{fill:#c9135d;}</style></defs><g id="Layer_2" data-name="Layer 2"><g id="Layer_1-2" data-name="Layer 1"><path class="cls-1" d="M88.13,89.32H14.41a1.5,1.5,0,0,1-1.5-1.5V14.1a1.5,1.5,0,0,1,1.5-1.5H88.13a1.5,1.5,0,0,1,1.5,1.5V87.82A1.5,1.5,0,0,1,88.13,89.32Zm-72.22-3H86.63V15.6H15.91Z"/><path class="cls-1" d="M78,79.25a1.41,1.41,0,0,1-.58-.12,1.26,1.26,0,0,1-.26-.13l-.22-.19a1.53,1.53,0,0,1-.45-1.06,1.51,1.51,0,0,1,.45-1.06l.22-.19.26-.14.28-.08a1.47,1.47,0,0,1,.59,0l.28.08.26.14a2.11,2.11,0,0,1,.23.19,1.5,1.5,0,0,1,.44,1.06A1.52,1.52,0,0,1,79,78.81a2.11,2.11,0,0,1-.23.19,1.26,1.26,0,0,1-.26.13,1.52,1.52,0,0,1-.28.09Z"/><path class="cls-1" d="M63.07,77.75a1.5,1.5,0,0,1,1.5-1.5h0a1.5,1.5,0,0,1,1.5,1.5h0a1.5,1.5,0,0,1-1.5,1.5h0A1.5,1.5,0,0,1,63.07,77.75Zm-13.4,0a1.5,1.5,0,0,1,1.5-1.5h0a1.5,1.5,0,0,1,1.5,1.5h0a1.5,1.5,0,0,1-1.5,1.5h0A1.5,1.5,0,0,1,49.67,77.75Zm-13.39,0a1.5,1.5,0,0,1,1.5-1.5h0a1.5,1.5,0,0,1,1.5,1.5h0a1.5,1.5,0,0,1-1.5,1.5h0A1.5,1.5,0,0,1,36.28,77.75Z"/><path class="cls-1" d="M24.38,79.25a1.5,1.5,0,0,1-1.5-1.5,1.5,1.5,0,0,1,.44-1.06,2.11,2.11,0,0,1,.23-.19l.26-.14.28-.08a1.5,1.5,0,0,1,1.79,1.47,1.52,1.52,0,0,1-.44,1.06A1.5,1.5,0,0,1,24.38,79.25Z"/><path class="cls-1" d="M22.88,64.35a1.5,1.5,0,0,1,1.5-1.5h0a1.5,1.5,0,0,1,1.5,1.5h0a1.5,1.5,0,0,1-1.5,1.5h0A1.5,1.5,0,0,1,22.88,64.35Zm0-13.39a1.5,1.5,0,0,1,1.5-1.5h0a1.5,1.5,0,0,1,1.5,1.5h0a1.5,1.5,0,0,1-1.5,1.5h0A1.5,1.5,0,0,1,22.88,51Zm0-13.4a1.5,1.5,0,0,1,1.5-1.5h0a1.5,1.5,0,0,1,1.5,1.5h0a1.5,1.5,0,0,1-1.5,1.5h0A1.5,1.5,0,0,1,22.88,37.56Z"/><path class="cls-1" d="M24.38,25.67l-.29,0a1.52,1.52,0,0,1-.28-.09,1.51,1.51,0,0,1-.81-.81,1.43,1.43,0,0,1,0-1.15,1.65,1.65,0,0,1,.14-.26,1,1,0,0,1,.18-.22,1.55,1.55,0,0,1,2.12,0,1.48,1.48,0,0,1,.41,1.35,1.47,1.47,0,0,1-.08.28,2.15,2.15,0,0,1-.14.26,1.37,1.37,0,0,1-.19.23A1.5,1.5,0,0,1,24.38,25.67Z"/><path class="cls-1" d="M63.07,24.17a1.5,1.5,0,0,1,1.5-1.5h0a1.5,1.5,0,0,1,1.5,1.5h0a1.5,1.5,0,0,1-1.5,1.5h0A1.5,1.5,0,0,1,63.07,24.17Zm-13.4,0a1.51,1.51,0,0,1,1.51-1.5h0a1.5,1.5,0,0,1,1.49,1.5h0a1.5,1.5,0,0,1-1.49,1.5h0A1.51,1.51,0,0,1,49.67,24.17Zm-13.39,0a1.5,1.5,0,0,1,1.5-1.5h0a1.5,1.5,0,0,1,1.5,1.5h0a1.5,1.5,0,0,1-1.5,1.5h0A1.5,1.5,0,0,1,36.28,24.17Z"/><path class="cls-1" d="M78,25.67a1.41,1.41,0,0,1-.58-.12,1.3,1.3,0,0,1-.26-.14,1,1,0,0,1-.22-.18,1.49,1.49,0,0,1,0-2.13,1.92,1.92,0,0,1,.22-.18l.26-.14a1,1,0,0,1,.28-.08,1.54,1.54,0,0,1,1.36.4,1.51,1.51,0,0,1,0,2.13,1.65,1.65,0,0,1-.77.41Z"/><path class="cls-1" d="M76.47,64.35a1.5,1.5,0,0,1,1.5-1.5h0a1.5,1.5,0,0,1,1.5,1.5h0a1.5,1.5,0,0,1-1.5,1.5h0A1.5,1.5,0,0,1,76.47,64.35Zm0-13.39a1.5,1.5,0,0,1,1.5-1.5h0a1.5,1.5,0,0,1,1.5,1.5h0a1.5,1.5,0,0,1-1.5,1.5h0A1.5,1.5,0,0,1,76.47,51Zm0-13.4a1.5,1.5,0,0,1,1.5-1.5h0a1.5,1.5,0,0,1,1.5,1.5h0a1.5,1.5,0,0,1-1.5,1.5h0A1.5,1.5,0,0,1,76.47,37.56Z"/><path class="cls-1" d="M21.4,15.6a1.5,1.5,0,0,1-1.5-1.5V1.5a1.5,1.5,0,0,1,3,0V14.1A1.5,1.5,0,0,1,21.4,15.6Z"/><path class="cls-1" d="M31.57,15.6a1.5,1.5,0,0,1-1.5-1.5V1.5a1.5,1.5,0,0,1,3,0V14.1A1.5,1.5,0,0,1,31.57,15.6Z"/><path class="cls-1" d="M41.73,15.6a1.5,1.5,0,0,1-1.5-1.5V1.5a1.5,1.5,0,0,1,3,0V14.1A1.5,1.5,0,0,1,41.73,15.6Z"/><path class="cls-1" d="M51.9,15.6a1.5,1.5,0,0,1-1.5-1.5V1.5a1.5,1.5,0,0,1,3,0V14.1A1.5,1.5,0,0,1,51.9,15.6Z"/><path class="cls-1" d="M62.07,15.6a1.5,1.5,0,0,1-1.5-1.5V1.5a1.5,1.5,0,0,1,3,0V14.1A1.5,1.5,0,0,1,62.07,15.6Z"/><path class="cls-1" d="M72.23,15.6a1.5,1.5,0,0,1-1.5-1.5V1.5a1.5,1.5,0,0,1,3,0V14.1A1.5,1.5,0,0,1,72.23,15.6Z"/><path class="cls-1" d="M82.4,15.6a1.5,1.5,0,0,1-1.5-1.5V1.5a1.5,1.5,0,0,1,3,0V14.1A1.5,1.5,0,0,1,82.4,15.6Z"/><path class="cls-1" d="M20.77,101.92a1.5,1.5,0,0,1-1.5-1.5V87.82a1.5,1.5,0,0,1,3,0v12.6A1.5,1.5,0,0,1,20.77,101.92Z"/><path class="cls-1" d="M30.94,101.92a1.5,1.5,0,0,1-1.5-1.5V87.82a1.5,1.5,0,1,1,3,0v12.6A1.5,1.5,0,0,1,30.94,101.92Z"/><path class="cls-1" d="M41.11,101.92a1.5,1.5,0,0,1-1.5-1.5V87.82a1.5,1.5,0,0,1,3,0v12.6A1.51,1.51,0,0,1,41.11,101.92Z"/><path class="cls-1" d="M51.27,101.92a1.5,1.5,0,0,1-1.5-1.5V87.82a1.5,1.5,0,0,1,3,0v12.6A1.5,1.5,0,0,1,51.27,101.92Z"/><path class="cls-1" d="M61.44,101.92a1.5,1.5,0,0,1-1.5-1.5V87.82a1.5,1.5,0,0,1,3,0v12.6A1.5,1.5,0,0,1,61.44,101.92Z"/><path class="cls-1" d="M71.61,101.92a1.5,1.5,0,0,1-1.5-1.5V87.82a1.5,1.5,0,0,1,3,0v12.6A1.51,1.51,0,0,1,71.61,101.92Z"/><path class="cls-1" d="M81.77,101.92a1.5,1.5,0,0,1-1.5-1.5V87.82a1.5,1.5,0,0,1,3,0v12.6A1.5,1.5,0,0,1,81.77,101.92Z"/><path class="cls-1" d="M14.1,82.64H1.5a1.5,1.5,0,0,1,0-3H14.1a1.5,1.5,0,0,1,0,3Z"/><path class="cls-1" d="M14.1,72.48H1.5a1.5,1.5,0,0,1,0-3H14.1a1.5,1.5,0,0,1,0,3Z"/><path class="cls-1" d="M14.1,62.31H1.5a1.5,1.5,0,0,1,0-3H14.1a1.5,1.5,0,0,1,0,3Z"/><path class="cls-1" d="M14.1,52.14H1.5a1.5,1.5,0,0,1,0-3H14.1a1.5,1.5,0,0,1,0,3Z"/><path class="cls-1" d="M14.1,42H1.5a1.5,1.5,0,0,1,0-3H14.1a1.5,1.5,0,1,1,0,3Z"/><path class="cls-1" d="M14.1,31.81H1.5a1.5,1.5,0,0,1,0-3H14.1a1.5,1.5,0,0,1,0,3Z"/><path class="cls-1" d="M14.1,21.64H1.5a1.5,1.5,0,0,1,0-3H14.1a1.5,1.5,0,1,1,0,3Z"/><path class="cls-1" d="M101,83.27H88.45a1.5,1.5,0,0,1,0-3H101a1.5,1.5,0,0,1,0,3Z"/><path class="cls-1" d="M101,73.11H88.45a1.5,1.5,0,0,1,0-3H101a1.5,1.5,0,0,1,0,3Z"/><path class="cls-1" d="M101,62.94H88.45a1.5,1.5,0,1,1,0-3H101a1.5,1.5,0,1,1,0,3Z"/><path class="cls-1" d="M101,52.77H88.45a1.5,1.5,0,0,1,0-3H101a1.5,1.5,0,0,1,0,3Z"/><path class="cls-1" d="M101,42.61H88.45a1.5,1.5,0,0,1,0-3H101a1.5,1.5,0,0,1,0,3Z"/><path class="cls-1" d="M101,32.44H88.45a1.5,1.5,0,0,1,0-3H101a1.5,1.5,0,1,1,0,3Z"/><path class="cls-1" d="M101,22.27H88.45a1.5,1.5,0,0,1,0-3H101a1.5,1.5,0,0,1,0,3Z"/></g></g></svg>