<svg xmlns="http://www.w3.org/2000/svg" viewBox="0 0 101.33 101.34"><defs><style>.cls-1{fill:#c9135d;}</style></defs><g id="Layer_2" data-name="Layer 2"><g id="Layer_1-2" data-name="Layer 1"><path class="cls-1" d="M53.13,71.09H48.72a9,9,0,0,1-9-9,2.75,2.75,0,0,1,5.49,0,3.49,3.49,0,0,0,3.49,3.49h4.41a3.5,3.5,0,0,0,3.49-3.49V57.7a3.49,3.49,0,0,0-3.49-3.49H48.72a9,9,0,0,1-9-9V40.82a9,9,0,0,1,9-9h4.41a9,9,0,0,1,9,9V41a2.75,2.75,0,1,1-5.49,0v-.19a3.49,3.49,0,0,0-3.49-3.49H48.72a3.49,3.49,0,0,0-3.49,3.49v4.41a3.49,3.49,0,0,0,3.49,3.49h4.41a9,9,0,0,1,9,9v4.41A9,9,0,0,1,53.13,71.09Z"/><path class="cls-1" d="M50.92,36.65a2.75,2.75,0,0,1-2.74-2.75V27.25a2.75,2.75,0,1,1,5.49,0V33.9A2.75,2.75,0,0,1,50.92,36.65Z"/><path class="cls-1" d="M50.92,77.74A2.74,2.74,0,0,1,48.18,75V68.34a2.75,2.75,0,0,1,5.49,0V75A2.75,2.75,0,0,1,50.92,77.74Z"/><path class="cls-1" d="M50.67,101.34A50.74,50.74,0,1,1,86.44,86.51,50.37,50.37,0,0,1,50.67,101.34Zm0-97.29A46.59,46.59,0,1,0,97.29,50.67,46.67,46.67,0,0,0,50.67,4.05Zm0,87.17A40.6,40.6,0,1,1,81.88,76.53h0A40.44,40.44,0,0,1,50.67,91.22Zm0-77.06a36.49,36.49,0,1,0,36.5,36.51A36.55,36.55,0,0,0,50.67,14.16Z"/></g></g></svg>