<svg xmlns="http://www.w3.org/2000/svg" viewBox="0 0 103.62 104.44"><defs><style>.cls-1{fill:#32de84;}</style></defs><g id="Layer_2" data-name="Layer 2"><g id="Layer_1-2" data-name="Layer 1"><path class="cls-1" d="M103.62,85.61c0,.06,0,.12,0,.18a1.56,1.56,0,0,1-.56,1l-4.93,3.93A1.45,1.45,0,0,1,97,91a1.5,1.5,0,0,1-1-.56l-6.36-8.15a3.77,3.77,0,0,0-2.84-1.64,6.18,6.18,0,0,0-4.65,2.08,6.29,6.29,0,0,0-2,4.71,3.74,3.74,0,0,0,1.55,2.81l8.17,6.45a1.54,1.54,0,0,1,.56,1,1.52,1.52,0,0,1-.3,1.11l-3.87,5a1.49,1.49,0,0,1-2.1.26l-8.08-6.39a13,13,0,0,1-5.17-9.57,14.71,14.71,0,0,1,1.88-8.23L24.3,31.15a14.25,14.25,0,0,1-8.13,1.94,12.86,12.86,0,0,1-9.55-5.26L.32,19.77a1.53,1.53,0,0,1,.25-2.13L5.5,13.71A1.48,1.48,0,0,1,7.59,14L14,22.11a3.77,3.77,0,0,0,2.84,1.64,6.16,6.16,0,0,0,4.65-2.08,6.31,6.31,0,0,0,2-4.71,3.7,3.7,0,0,0-1.55-2.8L13.76,7.7a1.5,1.5,0,0,1-.56-1,1.53,1.53,0,0,1,.3-1.11l3.87-5a1.47,1.47,0,0,1,1-.57,1.48,1.48,0,0,1,1.11.31l8.08,6.39a13,13,0,0,1,5.17,9.57,14.76,14.76,0,0,1-1.88,8.23L79.31,73.29a14.26,14.26,0,0,1,8.14-1.94A12.88,12.88,0,0,1,97,76.61l6.3,8.06A1.59,1.59,0,0,1,103.62,85.61Zm-6.18,1.81L100,85.36l-5.39-6.9a10,10,0,0,0-7.38-4.1,11.65,11.65,0,0,0-7.33,2.1A1.47,1.47,0,0,1,78,76.27L27.9,25.81a1.51,1.51,0,0,1-.2-1.9,12,12,0,0,0,2-7.41,10,10,0,0,0-4-7.38L18.8,3.63l-2,2.62,7,5.51a6.65,6.65,0,0,1,2.72,5,9.33,9.33,0,0,1-2.89,7.06,9.1,9.1,0,0,1-7,3,6.7,6.7,0,0,1-5-2.81L6.18,17,3.59,19.08,9,26a9.93,9.93,0,0,0,7.38,4.1A11.61,11.61,0,0,0,23.69,28a1.49,1.49,0,0,1,1.89.19L75.72,78.63a1.51,1.51,0,0,1,.19,1.9,12,12,0,0,0-2,7.41,10,10,0,0,0,4,7.39l6.94,5.48,2-2.62-7-5.5a6.73,6.73,0,0,1-2.73-5,9.32,9.32,0,0,1,2.9-7.06,9.1,9.1,0,0,1,7-3,6.71,6.71,0,0,1,5,2.81Z"/><path class="cls-1" d="M56.7,62.15A9.83,9.83,0,0,1,42,51.64a1.49,1.49,0,0,0-1.14-1.78A1.51,1.51,0,0,0,39,51,12.83,12.83,0,0,0,58.78,64.37,3.67,3.67,0,0,1,56.7,62.15Z"/><path class="cls-1" d="M53.69,44.12a9.86,9.86,0,0,1,7.52,11.72,7.44,7.44,0,0,1-.22.81,3.54,3.54,0,0,1,2.6,1.64,11.87,11.87,0,0,0,.55-1.81,12.86,12.86,0,0,0-9.81-15.29,1.5,1.5,0,0,0-.64,2.93Z"/><path class="cls-1" d="M64.74,73.89a21.64,21.64,0,0,0,1.91-1.39,3.64,3.64,0,0,1-2.11-2.17A21.27,21.27,0,0,1,62,72.06a1.5,1.5,0,0,0-.57,2L64,78.74A29,29,0,0,1,57.63,81l-.88-5.25A1.5,1.5,0,0,0,55,74.52a21.27,21.27,0,0,1-7.38-.07,1.48,1.48,0,0,0-1.12.23,1.56,1.56,0,0,0-.63,1l-1,5.24a28.35,28.35,0,0,1-6.36-2.38l2.7-4.59a1.51,1.51,0,0,0,.16-1.14,1.48,1.48,0,0,0-.7-.91,21.38,21.38,0,0,1-5.6-4.8,1.49,1.49,0,0,0-2.11-.2l-4.12,3.39a28,28,0,0,1-3.34-5.91l5-1.78a1.52,1.52,0,0,0,.89-2,21.45,21.45,0,0,1-1.18-7.25,1.49,1.49,0,0,0-.43-1.06,1.47,1.47,0,0,0-1.06-.45l-5.33,0a27.8,27.8,0,0,1,1.24-6.69l5,1.86a1.5,1.5,0,0,0,1.93-.88,21.38,21.38,0,0,1,3.75-6.36,1.5,1.5,0,0,0-.17-2.12l-1.79-1.52a4,4,0,0,1-1.3.22,3.74,3.74,0,0,1-3.85-3.41c-.13.15-.28.28-.41.43A1.51,1.51,0,0,0,28,35.47L32.12,39a24.19,24.19,0,0,0-2.77,4.69l-5.06-1.89a1.5,1.5,0,0,0-1.93.88,31,31,0,0,0-2,10.63,1.49,1.49,0,0,0,1.49,1.51l5.41.05a23.82,23.82,0,0,0,.89,5.38L23.1,62A1.52,1.52,0,0,0,22.18,64a31.22,31.22,0,0,0,5.32,9.4,1.5,1.5,0,0,0,2.11.2l4.18-3.44a24.85,24.85,0,0,0,4.14,3.54l-2.74,4.66a1.49,1.49,0,0,0,.53,2,31.15,31.15,0,0,0,10.12,3.79A1.49,1.49,0,0,0,47,83.91a1.46,1.46,0,0,0,.62-1l1-5.32a24.22,24.22,0,0,0,5.45.05l.9,5.34a1.45,1.45,0,0,0,.61,1,1.51,1.51,0,0,0,1.11.26,31.52,31.52,0,0,0,5.22-1.35,31.17,31.17,0,0,0,5-2.25,1.47,1.47,0,0,0,.7-.9,1.5,1.5,0,0,0-.13-1.14Z"/><path class="cls-1" d="M80.84,43.1a1.48,1.48,0,0,0-.77-.86,1.52,1.52,0,0,0-1.15-.05L73.86,44a24.17,24.17,0,0,0-2.73-4.78l4.17-3.46a1.49,1.49,0,0,0,.2-2.11,30.91,30.91,0,0,0-8.24-7,1.5,1.5,0,0,0-2.05.53l-2.73,4.67A25,25,0,0,0,57.36,30l1-5.32a1.51,1.51,0,0,0-1.21-1.75,30.91,30.91,0,0,0-10.81-.07,1.5,1.5,0,0,0-1.23,1.73L46,29.9a22,22,0,0,0-5.14,1.83L38.21,27a1.51,1.51,0,0,0-.91-.71,1.56,1.56,0,0,0-1.14.14,32.52,32.52,0,0,0-2.95,1.93,3.57,3.57,0,0,1,2.35,2l.79-.54L39,34.48a1.54,1.54,0,0,0,.91.71A1.56,1.56,0,0,0,41,35.05a20,20,0,0,1,7-2.48A1.45,1.45,0,0,0,49,32a1.52,1.52,0,0,0,.26-1.12l-.9-5.25a28.21,28.21,0,0,1,6.81.05l-1,5.24a1.51,1.51,0,0,0,1.2,1.75,21.3,21.3,0,0,1,6.93,2.57,1.49,1.49,0,0,0,2-.54L67,30.07a27.56,27.56,0,0,1,5.18,4.4l-4.11,3.4a1.48,1.48,0,0,0-.53,1,1.5,1.5,0,0,0,.33,1.1,21.2,21.2,0,0,1,3.7,6.46,1.5,1.5,0,0,0,1.91.91h0l5-1.81a28,28,0,0,1,1.14,6.79l-5.33-.06a1.5,1.5,0,0,0-1.52,1.48A21.38,21.38,0,0,1,71.44,61a1.48,1.48,0,0,0,0,1.15,1.53,1.53,0,0,0,.84.78l5,1.88a28.64,28.64,0,0,1-3.12,5.39,4.17,4.17,0,0,1,1.34,3.15,31.06,31.06,0,0,0,5.15-8.88,1.49,1.49,0,0,0-.87-1.93l-5.06-1.9a24.23,24.23,0,0,0,1-5.37l5.42.06a1.5,1.5,0,0,0,1.51-1.48A31.07,31.07,0,0,0,80.84,43.1Z"/></g></g></svg>