<?xml version="1.0" encoding="utf-8"?>
<!-- Generator: Adobe Illustrator 24.0.1, SVG Export Plug-In . SVG Version: 6.00 Build 0)  -->
<svg version="1.1" id="Layer_1" xmlns="http://www.w3.org/2000/svg" xmlns:xlink="http://www.w3.org/1999/xlink" x="0px" y="0px"
	 viewBox="0 0 100 100" style="enable-background:new 0 0 100 100;" xml:space="preserve">
<style type="text/css">
	.st0{fill:#6C6865;}
	.st1{opacity:0.19;fill:#010101;}
</style>
<path class="st0" d="M25.4,77.4c-0.6-0.7-1.5-1.1-2.7-1.1h-5.3l-0.4,2h5.3c0.5,0,1,0.2,1.3,0.6c0.3,0.4,0.4,0.9,0.3,1.4l-0.1,0.3
	l0,0.2h-4.9c-1.2,0-2.3,0.4-3.2,1.1c-0.9,0.7-1.5,1.7-1.8,2.9l-0.1,0.2c-0.2,1.2-0.1,2.1,0.6,2.9c0.6,0.8,1.5,1.1,2.7,1.1h7l1.9-9
	C26.2,79.1,26,78.1,25.4,77.4z M22.5,87.2h-4.9c-0.5,0-1-0.2-1.3-0.6c-0.3-0.4-0.4-0.9-0.3-1.4l0-0.2c0.1-0.6,0.4-1.1,0.9-1.4
	c0.4-0.4,1-0.6,1.6-0.6h4.9L22.5,87.2z M37.4,76.3l-2.3,10.9H30c-0.5,0-1-0.2-1.3-0.6c-0.3-0.4-0.4-0.9-0.3-1.4l1.8-8.8h-2.1
	l-1.8,8.8c-0.2,1.2-0.1,2.1,0.6,2.9s1.5,1.1,2.7,1.1h5.1l-0.2,0.7c-0.1,0.6-0.5,1.1-0.9,1.4c-0.4,0.4-1,0.6-1.6,0.6h-7l-0.4,2h7
	c1.2,0,2.3-0.4,3.1-1.2c0.9-0.7,1.6-1.7,1.8-2.9l2.8-13.6L37.4,76.3z"/>
<path class="st0" d="M16.1,77.5c-0.2,1.1-0.9,2.1-1.8,2.8c-1,0.8-2,1.2-3.1,1.2h-7l-1.6,7.7h-2l3.6-17.5h9c1.1,0,2,0.4,2.6,1.2
	c0.6,0.8,0.8,1.7,0.6,2.8L16.1,77.5z M14.1,77.5l0.4-1.8c0.1-0.6,0-1-0.3-1.4c-0.3-0.4-0.8-0.6-1.3-0.6h-7l-1.2,5.8h7
	c0.6,0,1.1-0.2,1.5-0.6C13.7,78.5,14,78,14.1,77.5L14.1,77.5z"/>
<path class="st0" d="M97.5,78.6c-0.6,0.4-1.2,0.6-1.8,0.9c-0.7,0.3-1.4,0.5-2.2,0.6c-0.3,0.1-0.6,0.1-1,0.1h0
	c-3,0.3-5.6-0.4-7.1-1.8c0,0,0,0,0,0c0,0.1,0,0.1,0,0.2c0,0.6,0.2,1.2,0.7,1.7c1.2,1.4,3.5,2.1,6.2,2.2c1.8,0,3.4-0.3,4.7-0.9
	c0.6-0.3,1.1-0.7,1.6-1.2c0.4-0.5,0.7-1.1,0.7-1.7c0-0.4-0.1-0.8-0.3-1.1C98.5,77.9,98.1,78.3,97.5,78.6z M92.2,76.7
	c-2.8,0.2-5.3-0.3-6.8-1.5c0,0.6,0.3,1.1,0.6,1.5c1.2,1.4,3.5,2.1,6.2,2.2c1.8,0,3.4-0.3,4.7-1c0.6-0.3,1.1-0.7,1.6-1.2
	c0.4-0.5,0.7-1.1,0.7-1.7c0-0.5-0.1-1-0.4-1.4C98.4,74.3,96.7,76.4,92.2,76.7z M92.3,75.4c1.8,0,3.4-0.3,4.7-1
	c0.6-0.3,1.1-0.7,1.6-1.2c0.4-0.5,0.7-1.1,0.7-1.7c0-0.6-0.2-1.2-0.7-1.7c-1.2-1.4-3.5-2.1-6.2-2.2c-1.8,0-3.4,0.3-4.7,0.9
	c-0.6,0.3-1.1,0.7-1.6,1.2c-0.4,0.5-0.7,1.1-0.7,1.7c0,0.6,0.2,1.2,0.7,1.7C87.3,74.7,89.6,75.4,92.3,75.4L92.3,75.4z M87,70.2
	c0.7-0.8,2.7-1.6,5.1-1.6c1.6,0,3,0.3,4,0.8c0.4,0.2,0.8,0.4,1.1,0.8c0.2,0.2,0.3,0.4,0.3,0.7c0,0.3-0.1,0.5-0.3,0.7
	c-0.6,0.8-2.7,1.6-5.1,1.6c-1.6,0-3-0.3-4-0.8c-0.4-0.2-0.8-0.4-1.1-0.8c-0.2-0.2-0.3-0.4-0.3-0.7C86.7,70.6,86.8,70.4,87,70.2z"/>
<path class="st0" d="M58.8,89.2l-7,0c-1.2,0-2.1-0.4-2.7-1.1c-0.6-0.8-0.8-1.7-0.6-2.9l0.1-0.2c0.2-1.2,0.8-2.2,1.8-2.9
	c0.9-0.7,2-1.2,3.2-1.2l4.9,0l0-0.2l0.1-0.3c0.1-0.5,0-1-0.3-1.4c-0.3-0.4-0.8-0.6-1.3-0.6l-5.8,0l0.4-2l5.8,0
	c1.2,0,2.1,0.4,2.7,1.1c0.6,0.7,0.8,1.7,0.6,2.8L58.8,89.2z M57.2,87.2l0.8-4.3l-4.9,0c-0.6,0-1.1,0.2-1.6,0.6
	c-0.5,0.4-0.8,0.9-0.9,1.4l-0.1,0.2c-0.1,0.6,0,1,0.3,1.4c0.3,0.4,0.8,0.6,1.3,0.6L57.2,87.2z"/>
<path class="st0" d="M72.2,85.7c-0.2,1.1-0.8,2-1.8,2.6c-0.9,0.6-2,0.9-3,0.9l-6.9,0l0.4-2l6.9,0c1.4,0,2.1-0.5,2.3-1.5l0.1-0.5
	c0.2-1-0.4-1.5-1.7-1.5l-3.1,0c-1.2,0-2-0.3-2.7-0.9c-0.7-0.6-1-1.5-0.7-2.6l0.1-0.5c0.2-1.1,0.8-2,1.8-2.6c0.9-0.6,2-0.9,3-0.9
	l6.9,0l-0.4,2l-6.9,0c-1.4,0-2.2,0.5-2.4,1.5l-0.1,0.5c-0.2,1,0.4,1.5,1.8,1.5l3.1,0c1.2,0,2,0.3,2.7,0.9c0.7,0.6,0.9,1.5,0.7,2.6
	L72.2,85.7z"/>
<path class="st0" d="M81.6,89.2l-3.2,0c-1.2,0-2.1-0.4-2.7-1.1c-0.6-0.8-0.8-1.7-0.6-2.9l1.4-7h-1.3l0.4-2.1h1.3l0.9-4.7l2.1,0
	L79,76.1l4.3,0l-0.4,2.1l-4.3,0l-1.4,7c-0.1,0.6,0,1.1,0.3,1.4c0.3,0.4,0.8,0.6,1.3,0.6l3.2,0L81.6,89.2z"/>
<path class="st0" d="M55.2,73.5l-8.5,0c-1.2,0-2.2,0.9-2.5,2l-0.8,3.9l5.3,0l-0.4,2.1l-5.3,0l-1.6,7.8l-2.1,0l2.8-13.7
	c0.5-2.3,2.6-4,5-4.1l8.5,0L55.2,73.5z"/>
<path class="st0" d="M40.7,95.6h-1.9l-0.4,1.2H38l1.6-4.2h0.3l1.6,4.2h-0.4L40.7,95.6z M38.9,95.3h1.7L39.7,93L38.9,95.3z"/>
<path class="st0" d="M43.4,96.8v-4.2h1.2c0.3,0,0.7,0.1,1,0.2c0.3,0.2,0.5,0.4,0.7,0.7c0.2,0.3,0.2,0.7,0.2,1v0.2
	c0,0.4-0.1,0.7-0.2,1c-0.2,0.3-0.4,0.5-0.7,0.7c-0.3,0.2-0.7,0.2-1,0.2L43.4,96.8z M44.2,93.2v3h0.5c0.3,0,0.7-0.1,0.9-0.4
	c0.2-0.2,0.3-0.6,0.3-1v-0.2c0-0.4-0.1-0.8-0.3-1c-0.2-0.2-0.5-0.4-0.9-0.4H44.2z"/>
<path class="st0" d="M48,95.2v1.6h-0.7v-4.2h1.6c0.4,0,0.8,0.1,1.1,0.4c0.3,0.2,0.4,0.6,0.4,1c0,0.4-0.1,0.7-0.4,1
	c-0.3,0.2-0.6,0.3-1.1,0.3H48z M48,94.6h0.9c0.2,0,0.4,0,0.6-0.2c0.1-0.1,0.2-0.3,0.2-0.5c0-0.2-0.1-0.4-0.2-0.5
	c-0.2-0.1-0.4-0.2-0.6-0.2H48L48,94.6z"/>
<path class="st0" d="M54.4,94.8c0,0.4-0.1,0.7-0.2,1.1c-0.1,0.3-0.3,0.5-0.6,0.7c-0.6,0.3-1.3,0.3-1.8,0c-0.3-0.2-0.5-0.4-0.6-0.7
	c-0.2-0.3-0.2-0.7-0.2-1.1v-0.2c0-0.4,0.1-0.7,0.2-1.1c0.1-0.3,0.3-0.5,0.6-0.7c0.6-0.3,1.3-0.3,1.8,0c0.3,0.2,0.5,0.4,0.6,0.7
	c0.2,0.3,0.2,0.7,0.2,1.1L54.4,94.8z M53.7,94.6c0-0.5-0.1-0.8-0.3-1.1c-0.3-0.4-0.9-0.5-1.3-0.2c-0.1,0.1-0.1,0.1-0.2,0.2
	c-0.2,0.3-0.3,0.7-0.3,1v0.2c0,0.5,0.1,0.8,0.3,1.1c0.2,0.2,0.4,0.4,0.7,0.4c0.3,0,0.6-0.1,0.7-0.4c0.2-0.2,0.3-0.6,0.3-1.1
	L53.7,94.6z"/>
<path class="st0" d="M59.6,95.5c0,0.4-0.2,0.7-0.5,1c-0.3,0.2-0.7,0.4-1.1,0.4c-0.3,0-0.6-0.1-0.8-0.2c-0.2-0.2-0.4-0.4-0.6-0.7
	c-0.1-0.3-0.2-0.6-0.2-1v-0.5c0-0.3,0.1-0.7,0.2-1c0.1-0.3,0.3-0.5,0.6-0.7c0.3-0.2,0.5-0.2,0.8-0.2c0.8-0.1,1.4,0.5,1.5,1.3
	c0,0,0,0.1,0,0.1h-0.4c-0.1-0.7-0.5-1.1-1.2-1.1c-0.4,0-0.7,0.1-0.9,0.4c-0.2,0.3-0.3,0.7-0.3,1.2v0.5c0,0.4,0.1,0.8,0.3,1.2
	c0.2,0.3,0.5,0.4,0.9,0.4c0.3,0,0.6-0.1,0.8-0.3c0.2-0.2,0.3-0.5,0.3-0.8L59.6,95.5z"/>
<path class="st0" d="M60.2,95.2c0-0.3,0.1-0.6,0.2-0.8c0.2-0.5,0.7-0.8,1.2-0.8c0.4,0,0.8,0.1,1,0.4c0.3,0.3,0.4,0.7,0.4,1.2v0.1
	c0,0.3-0.1,0.6-0.2,0.8c-0.1,0.2-0.3,0.4-0.5,0.6c-0.2,0.1-0.5,0.2-0.7,0.2c-0.4,0-0.8-0.1-1-0.4C60.3,96.1,60.2,95.6,60.2,95.2
	L60.2,95.2z M60.6,95.3c0,0.3,0.1,0.7,0.3,0.9c0.3,0.4,1,0.5,1.4,0.1c0,0,0.1-0.1,0.1-0.1c0.2-0.3,0.3-0.6,0.3-0.9v-0.1
	c0-0.2,0-0.4-0.1-0.7c-0.1-0.2-0.2-0.3-0.4-0.5c-0.2-0.1-0.4-0.2-0.5-0.2c-0.3,0-0.6,0.1-0.7,0.4C60.7,94.5,60.5,94.9,60.6,95.3
	L60.6,95.3z"/>
<path class="st0" d="M64,93.7l0,0.5c0.1-0.2,0.3-0.3,0.4-0.4c0.2-0.1,0.4-0.1,0.6-0.1c0.5,0,0.8,0.2,0.9,0.6
	c0.1-0.2,0.3-0.3,0.4-0.4c0.2-0.1,0.4-0.2,0.6-0.2c0.7,0,1,0.4,1,1.1v2.1h-0.3v-2.1c0-0.2,0-0.4-0.2-0.6c-0.2-0.1-0.4-0.2-0.6-0.2
	c-0.2,0-0.5,0.1-0.6,0.2c-0.2,0.1-0.3,0.4-0.3,0.6v2.1h-0.3v-2.1c0-0.2-0.1-0.4-0.2-0.6c-0.2-0.1-0.4-0.2-0.6-0.2
	c-0.2,0-0.4,0.1-0.6,0.2c-0.2,0.1-0.3,0.3-0.3,0.6v2.1h-0.3v-3.1H64z"/>
<path class="st0" d="M71.4,95.2c0,0.4-0.1,0.8-0.3,1.2c-0.2,0.3-0.5,0.4-0.9,0.4c-0.4,0-0.7-0.1-1-0.4V98h-0.3v-4.3h0.3l0,0.4
	c0.2-0.3,0.6-0.5,1-0.5c0.3,0,0.7,0.1,0.9,0.4C71.3,94.3,71.4,94.7,71.4,95.2L71.4,95.2z M71.1,95.2c0-0.3-0.1-0.7-0.2-0.9
	c-0.2-0.2-0.4-0.4-0.7-0.3c-0.2,0-0.4,0-0.5,0.1c-0.2,0.1-0.3,0.3-0.3,0.4V96c0.1,0.2,0.2,0.3,0.4,0.4c0.2,0.1,0.4,0.2,0.6,0.1
	c0.3,0,0.5-0.1,0.7-0.3C71,96,71.1,95.6,71.1,95.2z"/>
<path class="st0" d="M74.1,96.8c0-0.1-0.1-0.3-0.1-0.4c-0.1,0.2-0.3,0.3-0.5,0.4c-0.2,0.1-0.4,0.1-0.6,0.1c-0.3,0-0.5-0.1-0.7-0.3
	c-0.2-0.2-0.3-0.4-0.3-0.6c0-0.3,0.1-0.6,0.4-0.7c0.3-0.2,0.7-0.3,1.1-0.3h0.6v-0.4c0-0.2-0.1-0.4-0.2-0.5c-0.2-0.1-0.4-0.2-0.6-0.2
	c-0.2,0-0.4,0.1-0.6,0.2c-0.1,0.1-0.2,0.3-0.2,0.4h-0.3c0-0.3,0.1-0.5,0.3-0.6c0.2-0.2,0.5-0.3,0.8-0.3c0.3,0,0.6,0.1,0.8,0.3
	c0.2,0.2,0.3,0.5,0.3,0.7v1.5c0,0.2,0,0.5,0.1,0.7v0L74.1,96.8z M73.1,96.5c0.2,0,0.4-0.1,0.6-0.2c0.2-0.1,0.3-0.3,0.4-0.4v-0.7
	h-0.6c-0.3,0-0.6,0.1-0.8,0.2c-0.2,0.1-0.3,0.3-0.3,0.5c0,0.2,0.1,0.3,0.2,0.4C72.7,96.5,72.9,96.5,73.1,96.5L73.1,96.5z"/>
<path class="st0" d="M75.7,93.7l0,0.5c0.1-0.2,0.3-0.3,0.4-0.4c0.2-0.1,0.4-0.2,0.6-0.1c0.3,0,0.5,0.1,0.7,0.3
	c0.2,0.2,0.2,0.5,0.2,0.8v2h-0.3v-2c0-0.2,0-0.4-0.2-0.6c-0.1-0.1-0.3-0.2-0.6-0.2c-0.2,0-0.4,0.1-0.6,0.2c-0.2,0.1-0.3,0.3-0.4,0.5
	v2.1h-0.3v-3.1H75.7z"/>
<path class="st0" d="M79.5,96.3l0.9-2.6h0.4l-1.3,3.6l-0.1,0.2C79.3,97.8,79,98,78.6,98c-0.1,0-0.2,0-0.3,0v-0.3l0.2,0
	c0.1,0,0.3,0,0.4-0.1c0.1-0.1,0.2-0.3,0.3-0.4l0.1-0.4l-1.2-3.1h0.4L79.5,96.3z"/>
<g>
	<g>
		<g>
			<g>
				<path class="st0" d="M59.1,45.2h-4.5c-0.3,0-0.6,0.2-0.6,0.5l-1.8,11.6c0,0.2,0.1,0.4,0.4,0.4h2.3c0.2,0,0.4-0.2,0.4-0.4
					l0.5-3.3c0-0.3,0.3-0.5,0.6-0.5h1.4c3,0,4.7-1.4,5.1-4.3c0.2-1.2,0-2.2-0.6-2.9C61.8,45.6,60.7,45.2,59.1,45.2z M59.7,49.5
					c-0.2,1.6-1.5,1.6-2.7,1.6h-0.7l0.5-3c0-0.2,0.2-0.3,0.4-0.3h0.3c0.8,0,1.6,0,2,0.5C59.7,48.5,59.8,48.9,59.7,49.5z"/>
				<path class="st0" d="M27,45.2h-4.5c-0.3,0-0.6,0.2-0.6,0.5L20,57.3c0,0.2,0.1,0.4,0.4,0.4h2.2c0.3,0,0.6-0.2,0.6-0.5l0.5-3.1
					c0-0.3,0.3-0.5,0.6-0.5h1.4c3,0,4.7-1.4,5.1-4.3c0.2-1.2,0-2.2-0.6-2.9C29.6,45.6,28.5,45.2,27,45.2z M27.5,49.5
					c-0.2,1.6-1.5,1.6-2.7,1.6h-0.7l0.5-3c0-0.2,0.2-0.3,0.4-0.3h0.3c0.8,0,1.6,0,2,0.5C27.5,48.5,27.6,48.9,27.5,49.5z"/>
				<path class="st0" d="M40.5,49.4h-2.2c-0.2,0-0.3,0.1-0.4,0.3l-0.1,0.6l-0.2-0.2c-0.5-0.7-1.5-0.9-2.5-0.9
					c-2.4,0-4.4,1.8-4.8,4.3c-0.2,1.3,0.1,2.5,0.8,3.3c0.7,0.8,1.6,1.1,2.7,1.1c1.9,0,3-1.2,3-1.2l-0.1,0.6c0,0.2,0.1,0.4,0.4,0.4
					h1.9c0.3,0,0.6-0.2,0.6-0.5l1.2-7.4C40.9,49.6,40.7,49.4,40.5,49.4z M37.5,53.6c-0.2,1.2-1.2,2.1-2.4,2.1
					c-0.6,0-1.1-0.2-1.4-0.6c-0.3-0.4-0.4-0.9-0.3-1.5c0.2-1.2,1.2-2.1,2.4-2.1c0.6,0,1.1,0.2,1.4,0.6C37.4,52.5,37.6,53,37.5,53.6z
					"/>
				<path class="st0" d="M72.6,49.4h-2.2c-0.2,0-0.3,0.1-0.4,0.3L70,50.3l-0.2-0.2c-0.5-0.7-1.5-0.9-2.5-0.9c-2.4,0-4.4,1.8-4.8,4.3
					c-0.2,1.3,0.1,2.5,0.8,3.3c0.7,0.8,1.6,1.1,2.7,1.1c1.9,0,3-1.2,3-1.2l-0.1,0.6c0,0.2,0.1,0.4,0.4,0.4h1.9
					c0.3,0,0.6-0.2,0.6-0.5l1.2-7.4C73,49.6,72.9,49.4,72.6,49.4z M69.6,53.6c-0.2,1.2-1.2,2.1-2.4,2.1c-0.6,0-1.1-0.2-1.4-0.6
					c-0.3-0.4-0.4-0.9-0.3-1.5c0.2-1.2,1.2-2.1,2.4-2.1c0.6,0,1.1,0.2,1.4,0.6C69.6,52.5,69.7,53,69.6,53.6z"/>
				<path class="st0" d="M52,49.4h-2.2c-0.2,0-0.4,0.1-0.5,0.3l-3,4.4L45,49.9c-0.1-0.3-0.3-0.4-0.6-0.4h-2.1
					c-0.3,0-0.4,0.3-0.4,0.5l2.4,7l-2.2,3.2c-0.2,0.2,0,0.6,0.3,0.6h2.2c0.2,0,0.4-0.1,0.5-0.3L52.3,50C52.4,49.8,52.3,49.4,52,49.4
					z"/>
				<path class="st0" d="M75.2,45.6l-1.9,11.8c0,0.2,0.1,0.4,0.4,0.4h1.9c0.3,0,0.6-0.2,0.6-0.5L78,45.7c0-0.2-0.1-0.4-0.4-0.4h-2.1
					C75.4,45.2,75.2,45.4,75.2,45.6z"/>
			</g>
		</g>
	</g>
</g>
<g>
	<path class="st0" d="M63.1,12.8c0.5-2.9,0-4.9-1.6-6.7c-1.7-2-4.9-2.8-8.9-2.8H41c-0.8,0-1.5,0.6-1.6,1.4l-4.8,30.7
		c-0.1,0.6,0.4,1.2,1,1.2h7.2l-0.5,3.1c-0.1,0.5,0.3,1,0.9,1h6c0.7,0,1.3-0.5,1.4-1.2l0.1-0.3l1.1-7.2l0.1-0.4
		c0.1-0.7,0.7-1.2,1.4-1.2h0.9c5.9,0,10.4-2.4,11.8-9.3c0.6-2.9,0.3-5.3-1.2-7C64.3,13.6,63.7,13.2,63.1,12.8L63.1,12.8"/>
	<path class="st0" d="M63.1,12.8c0.5-2.9,0-4.9-1.6-6.7c-1.7-2-4.9-2.8-8.9-2.8H41c-0.8,0-1.5,0.6-1.6,1.4l-4.8,30.7
		c-0.1,0.6,0.4,1.2,1,1.2h7.2l1.8-11.4l-0.1,0.4c0.1-0.8,0.8-1.4,1.6-1.4h3.4c6.7,0,11.9-2.7,13.5-10.6C63,13.3,63,13.1,63.1,12.8"
		/>
	<path class="st1" d="M46.4,12.9c0.1-0.5,0.4-0.9,0.8-1.1c0.2-0.1,0.4-0.1,0.6-0.1H57c1.1,0,2.1,0.1,3,0.2c0.3,0,0.5,0.1,0.8,0.1
		s0.5,0.1,0.7,0.2c0.1,0,0.2,0.1,0.3,0.1c0.5,0.1,0.9,0.3,1.3,0.5c0.5-2.9,0-4.9-1.6-6.7c-1.7-2-4.9-2.8-8.9-2.8H41
		c-0.8,0-1.5,0.6-1.6,1.4l-4.8,30.7c-0.1,0.6,0.4,1.2,1,1.2h7.2l1.8-11.4L46.4,12.9z"/>
</g>
</svg>
