<?xml version="1.0" encoding="utf-8"?>
<!-- Generator: Adobe Illustrator 24.0.1, SVG Export Plug-In . SVG Version: 6.00 Build 0)  -->
<svg version="1.1" id="Layer_1" xmlns="http://www.w3.org/2000/svg" xmlns:xlink="http://www.w3.org/1999/xlink" x="0px" y="0px"
	 viewBox="0 0 100 100" style="enable-background:new 0 0 100 100;" xml:space="preserve">
<style type="text/css">
	.st0{fill:#6C6865;}
	.st1{fill:#6C6865;stroke:#6C6865;stroke-width:2.5;stroke-miterlimit:10;}
	.st2{fill:#FFFFFF;}
</style>
<g>
	<path class="st0" d="M87.8,29.5c-0.6-0.6-1.4-1-2.3-1H33.8c-0.9,0-1.6,0.3-2.3,1c-0.6,0.6-1,1.4-1,2.3v9.7h-8.1
		c-0.9,0-1.9,0.2-3,0.7c-1.1,0.4-1.9,1-2.5,1.6l-10,10c-0.4,0.4-0.8,0.9-1.1,1.5c-0.3,0.6-0.6,1.1-0.7,1.5c-0.2,0.5-0.3,1.1-0.3,1.9
		c-0.1,0.8-0.1,1.4-0.1,1.7c0,0.4,0,1,0,1.9c0,0.9,0,1.5,0,1.8v16.2c-0.9,0-1.6,0.3-2.3,1c-0.6,0.6-1,1.4-1,2.3c0,0.5,0.1,1,0.2,1.3
		c0.1,0.4,0.4,0.7,0.7,0.9C2.7,86,3,86.2,3.2,86.3c0.2,0.2,0.6,0.3,1.2,0.3s0.9,0.1,1.1,0.1c0.2,0,0.6,0,1.3,0c0.7,0,1,0,1.1,0h3.2
		c0,3.6,1.3,6.6,3.8,9.1c2.5,2.5,5.6,3.8,9.1,3.8c3.6,0,6.6-1.3,9.1-3.8c2.5-2.5,3.8-5.6,3.8-9.1h19.4c0,3.6,1.3,6.6,3.8,9.1
		c2.5,2.5,5.6,3.8,9.1,3.8c3.6,0,6.6-1.3,9.1-3.8c2.5-2.5,3.8-5.6,3.8-9.1c0.1,0,0.5,0,1.1,0c0.7,0,1.1,0,1.3,0
		c0.2,0,0.6-0.1,1.1-0.1c0.6-0.1,0.9-0.2,1.2-0.3s0.5-0.3,0.8-0.6c0.3-0.2,0.5-0.5,0.7-0.9c0.1-0.4,0.2-0.8,0.2-1.3V31.8
		C88.7,30.9,88.4,30.2,87.8,29.5z M28.6,91.2c-1.3,1.3-2.8,1.9-4.5,1.9c-1.7,0-3.3-0.6-4.5-1.9c-1.3-1.3-1.9-2.8-1.9-4.5
		c0-1.7,0.6-3.3,1.9-4.5c1.3-1.3,2.8-1.9,4.5-1.9c1.7,0,3.3,0.6,4.5,1.9c1.3,1.3,1.9,2.8,1.9,4.5C30.6,88.5,29.9,90,28.6,91.2z
		 M30.6,60.9H11.2v-1.5c0-0.4,0.2-0.8,0.5-1.1l9.8-9.8c0.3-0.3,0.7-0.5,1.1-0.5h8V60.9z M73.9,91.2c-1.3,1.3-2.8,1.9-4.5,1.9
		c-1.8,0-3.3-0.6-4.5-1.9c-1.3-1.3-1.9-2.8-1.9-4.5c0-1.7,0.6-3.3,1.9-4.5c1.3-1.3,2.8-1.9,4.5-1.9c1.7,0,3.3,0.6,4.5,1.9
		c1.3,1.3,1.9,2.8,1.9,4.5C75.8,88.5,75.1,90,73.9,91.2z"/>
</g>
<circle class="st1" cx="73.8" cy="26.1" r="24.2"/>
<g>
	<g>
		<polygon class="st2" points="66.6,14.2 66.3,14.4 66.6,14.7 66.9,14.4 		"/>
		<path class="st2" d="M53.4,13.7l0-0.3l0-0.2c-0.3,0.5-0.7,1.1-1,1.7l0.3-0.4L53.4,13.7z"/>
		<polygon class="st2" points="61,8 61,7.6 60.2,7.6 60.1,7.8 59.6,7.8 59.6,7.8 59.6,8.3 60.8,8.3 		"/>
		<path class="st2" d="M97.5,20.6L97.5,20.6l0.1,0.4C97.6,20.9,97.5,20.8,97.5,20.6z"/>
		<path class="st2" d="M65.1,15.1l0.5-0.1l0.4-0.2v-0.5h-0.8C65.1,14.4,65.1,15.1,65.1,15.1z"/>
		<path class="st2" d="M96.1,16.4c-0.2-0.4-0.4-0.8-0.6-1.2l-0.2,0.2v1.1l0.5-0.1L96.1,16.4z"/>
		<path class="st2" d="M61,9.4c0,0,0-0.5,0-0.5S60.4,9,60.4,9l-0.8,0.2l0.2,0.3L61,9.4z"/>
		<path class="st2" d="M92.2,11.6l0.5-0.7c-0.4-0.5-0.8-0.9-1.2-1.4l0,1.2l-1,0.5l0.1,0.3L92.2,11.6z"/>
		<polygon class="st2" points="63,11.6 62.5,11.5 61.8,11.8 62.2,12.6 62.8,12.4 		"/>
		<polygon class="st2" points="65.5,13.5 65.5,14.1 66,14 		"/>
		<polygon class="st2" points="64,13.3 63.3,13.6 63.2,13.9 63.8,14.1 65.2,14.1 65.2,13.6 65,13.6 65,13.3 		"/>
		<polygon class="st2" points="63.1,15.5 63.5,15.7 64.6,14.3 63.8,14.3 63.2,14.9 		"/>
		<polygon class="st2" points="66.1,14.8 66.1,15.3 66.3,15.6 67.1,15.6 67.1,15.1 66.1,14.8 		"/>
		<polygon class="st2" points="65.1,15.5 64.7,15.5 64.6,16.1 65.3,16.1 65.7,15.7 65.7,15.3 65.1,15.3 		"/>
		<path class="st2" d="M95.2,17.5l-0.6-0.7l-0.1-1.1L93.8,16l-0.4,1.4l-0.9-1l0-0.9l-0.9-0.8l-0.3-0.3h-1.1l0.3,0.9l1.3,0.7l0.2,0.2
			l-0.3,0.1l0,0.7l-0.6,0.3l-0.5-0.1l-0.3-0.5l0.9,0l0.2-0.3l-1.9-1.3l-0.1-0.5l-0.8,0.7l-0.8-0.2l-1.2,1.5l-0.2,0.6l-0.8,0.1
			l-1.1,0l-0.7-0.3l-0.2-1.3l0.2-0.6l1.1-0.3l1.2,0.3l0.2-0.7l-0.5-0.1l0.2-1.1l1.3-0.2l0.9-1.2l0.9-0.2l0.8,0.1h0.3L90,10.6L89,11
			l-0.4-0.9l-0.6-0.1L88,9.5L88.5,9l1.1-0.4L89.9,8c-3.2-2.8-7.1-4.8-11.4-5.6c-0.1,0-0.2,0-0.3-0.1c-0.4-0.1-0.9-0.1-1.4-0.2
			c-1-0.1-2-0.2-3-0.2c-5.3,0-10.3,1.7-14.3,4.7l0.2,0l1,0l0.5,0.3l1,0.2l0.1,0.4l1.6,0.1L63.9,7l-1.5,0l0.3-0.3l-0.1-0.4h-1.3
			l1.4-1.1h1.4l0.6,0.9l1.1,0.1l0.6-0.6L67,5.8l-0.9,0.9c0,0-1.2,0-1.2,0C65,6.7,65,7.5,65,7.5l1.5,0l0.2-0.4l1-0.1l0.1-0.6
			l-0.6-0.1l0.2-0.5l0.5-0.1l1.6,0.1l-0.9,0.8l0.1,0.6l0.9,0.1l-0.1-1.1l0.9-0.5l1.6-0.2l2.3,1v0.9l0.7,0.2l-0.4,0.7h-1L73.4,9
			L71,8.5l1.9-1l-0.7-0.6l-1.6,0.2l-0.1,0.1l0,0l0,0L70,7.7l-0.8,0.1l0.1,0.4l0.3,0.1l0,0.1l-0.6,0.1l0,0.4l-0.6,0l-0.1-0.7
			l-1.1,0.3l-2.2,1.3l0.2,0.9l0.6,0.4l1.2,0.2v1.4l0.6-0.1l0.5-1.1l1.3-0.4V9.4l0.7-0.5l1.7,0.4l-0.1,1.1h0.5l1.3-0.6l0.1,1.4
			l0.9,0.6l0,0.8l-0.9,0.3l0.1,0.3l1.1,0.5l0,0.6l-0.3,0c0,0,0,0,0,0l-1.4-0.4l-0.1-0.4l0,0l0.4-0.3v-0.4l-0.4-0.1L72.7,13L72,13.1
			l-0.1,0v0l-0.3,0l-0.2-0.4l-0.2-0.1h-0.5l-0.2,0.2v0.4l0.5,0.2l0.4,0.1l-0.1,0L70.8,14l-0.2-0.2l-0.4-0.1l-1.1,1l0.1,0.1l-1.6,0.9
			l-1.5,1.6l-0.1,0.7l-1.5,1l-0.7,0.7l0.1,1.5l-1-0.5l0-0.9l-2.9,0l-1.5,0.8L58,21.7l-0.3,0.9l0.4,0.9l1.2,0.1l1.9-1.2l0.2,0.6
			l-0.6,1.1l1.4,0.2l0.1,2.2l0.2,0l0,0l1.7,0.3l1.2-1.4l1.5,0.3l0.5,0.7l1.4-0.1l0-0.4l0.8,0.4l0.9,1.4l1.5,0l0.6,1l0.1,1.2l1.7,0.6
			l2.1,0l0.6,1l0.9,0.3l-0.2,0.8l-1,1.3l-0.3,2.9l-0.9,0.7l-1.4,0l-0.5,0.8l0.3,1.5L72.7,42l-0.5,0.9l-1.4,0.7l-0.9,0.1l0,0.4
			l0.7,0.2l-0.1,0.4l-0.6,0.6l0.4,0.5l0.7,0l0,0.6l-0.2,0.5l-0.1,0.4l1.1,0.9l-0.1,0.5l-1.4,0l-1.4-1.3l-1.1-2l0.2-1.9l-0.8-1.1
			l0.3-1.9l-0.5-0.1v-4.2c0,0-1.4-1.1-1.5-1.1c-0.1,0-0.7-0.2-0.7-0.2l-0.1-0.8l-1.8-2.3l0.2-0.8l0.1-1.4l1.3-0.9l-0.2-1.5l-1.9-0.1
			l-1.5-1.7l-1-0.3l-0.7-0.1l0.1-0.6L58,24.4v0.3l-2.1-0.5L55,22.9l0.3-0.5l-0.4,0L54.9,22l0.2-0.1L54,20.3l-0.2-1.4h-0.5l0.2,1.4
			l0.9,1.4l-0.1,0.6l-0.8-0.1l-1-1.7v-1.9l-1-0.5v-1.2v-0.2c-0.6,1.3-1,2.7-1.3,4.2l0.1,0l0.3-0.1l0.2,0.9l0.4,0.7l0.3,0.3l0.5,0.2
			l-0.5,0.6l-0.9,0.1h-0.7l0.1-0.8l0.6-0.1l0-0.4L50,22l0,0c-0.2,1.4-0.4,2.8-0.4,4.3c0,0,0,0.1,0,0.1c0.1,13.3,10.9,24.2,24.3,24.2
			c7.6,0,14.4-3.5,18.8-9h-0.8v-1.6L91,38.7v-1.9L90.3,36l-0.1-0.8l0.9-1.7l-1.7-3l0.2-2l-1.5-0.2l-0.6-0.6h-1l-0.5,0.5h-1.8
			l-0.1,0.2h-1l-2.3-2.6l0-2.1l0.4-0.1l0.1-0.8h-0.5l-0.2-0.8l2.7-1.9v-1.4l1.3-0.7l0.5,0.1h1.1l0.8-0.5l2.7-0.2v1.4l2.2,0.5
			l0.4,0.3h0.4v-0.8l1.2-0.1l1.2,0.9H97l0.1-0.1c-0.2-0.7-0.4-1.3-0.7-1.9L95.2,17.5z"/>
	</g>
</g>
</svg>
