<?xml version="1.0" encoding="utf-8"?>
<!-- Generator: Adobe Illustrator 24.0.1, SVG Export Plug-In . SVG Version: 6.00 Build 0)  -->
<svg version="1.1" id="Layer_1" xmlns="http://www.w3.org/2000/svg" xmlns:xlink="http://www.w3.org/1999/xlink" x="0px" y="0px"
	 viewBox="0 0 100 100" style="enable-background:new 0 0 100 100;" xml:space="preserve">
<style type="text/css">
	.st0{fill:#6C6865;}
	.st1{fill:#FFFFFF;}
	.st2{fill:none;stroke:#FFFFFF;stroke-width:3;stroke-miterlimit:10;}
	.st3{fill:#FFFFFF;stroke:#6C6865;stroke-width:3;stroke-miterlimit:10;}
	.st4{fill:none;}
	.st5{font-family:'FuturaBT-BoldCondensed';}
	.st6{font-size:29.2719px;}
	.st7{font-family:'CenturyGothic-Bold';}
	.st8{font-size:25.9267px;}
</style>
<g>
	<path class="st0" d="M88.2,58.3c1.8-2.3,1.8-5.5,0-7.8l-2-2.5c-0.8-1-1-2.2-0.7-3.4l0.9-3c0.8-2.8-0.4-5.8-3-7.2l-2.8-1.5
		c-1.1-0.6-1.8-1.7-2-2.9l-0.3-3.2c-0.3-2.9-2.6-5.2-5.5-5.5l-3.2-0.3c-1.2-0.1-2.3-0.9-2.9-1.9l-1.5-2.8c-1.4-2.6-4.4-3.8-7.2-3
		l-3,0.9c-1.2,0.3-2.5,0.1-3.4-0.7l-2.5-2c-2.3-1.8-5.5-1.8-7.8,0l-2.5,2c-1,0.8-2.2,1-3.4,0.7l-3-0.9c-2.8-0.8-5.8,0.4-7.2,3
		L23.6,19c-0.6,1.1-1.7,1.8-2.9,2l-3.2,0.3c-2.9,0.3-5.2,2.6-5.5,5.5L11.7,30c-0.1,1.2-0.9,2.3-1.9,2.9L7,34.4
		c-2.6,1.4-3.8,4.4-3,7.2l0.9,3c0.3,1.2,0.1,2.5-0.7,3.4l-2,2.5c-1.8,2.3-1.8,5.5,0,7.8l2,2.5c0.8,1,1,2.2,0.7,3.4l-0.9,3
		c-0.8,2.8,0.4,5.8,3,7.2L9.8,76c1.1,0.6,1.8,1.7,2,2.9l0.3,3.2c0.3,2.9,2.6,5.2,5.5,5.5l3.2,0.3c1.2,0.1,2.3,0.9,2.9,1.9l1.5,2.8
		c1.4,2.6,4.4,3.8,7.2,3l3-0.9c1.2-0.3,2.5-0.1,3.4,0.7l2.5,2c2.3,1.8,5.5,1.8,7.8,0l2.5-2c1-0.8,2.2-1,3.4-0.7l3,0.9
		c2.8,0.8,5.8-0.4,7.2-3l1.5-2.8c0.6-1.1,1.7-1.8,2.9-2l3.2-0.3c2.9-0.3,5.2-2.6,5.5-5.5l0.3-3.2c0.1-1.2,0.9-2.3,1.9-2.9l2.8-1.5
		c2.6-1.4,3.8-4.4,3-7.2l-0.9-3c-0.3-1.2-0.1-2.5,0.7-3.4L88.2,58.3z"/>
	<g id="XMLID_131_">
		<g>
			<path class="st0" d="M86.3,52.1c1.1,1.4,1.1,3.4,0,4.7l-2,2.5c-1.3,1.6-1.7,3.7-1.1,5.6l0.9,3c0.5,1.7-0.3,3.5-1.8,4.4l-2.8,1.5
				c-1.8,1-3,2.8-3.2,4.8l-0.3,3.2c-0.2,1.8-1.6,3.2-3.4,3.4l-3.2,0.3c-2,0.2-3.8,1.4-4.8,3.2l-1.5,2.8c-0.9,1.6-2.7,2.3-4.4,1.8
				l-3-0.9c-1.9-0.6-4-0.1-5.6,1.1l-2.5,2c-1.4,1.1-3.4,1.1-4.7,0l-2.5-2c-1.6-1.3-3.7-1.7-5.6-1.1l-3,0.9c-1.7,0.5-3.5-0.2-4.4-1.8
				l-1.5-2.8c-1-1.8-2.8-3-4.8-3.2l-3.2-0.3c-1.8-0.2-3.2-1.6-3.4-3.4l-0.3-3.2c-0.2-2-1.4-3.8-3.2-4.8l-2.8-1.5
				c-1.6-0.9-2.3-2.7-1.8-4.4l0.9-3c0.6-1.9,0.2-4.1-1.1-5.6l-2-2.5c-1.1-1.4-1.1-3.4,0-4.7l2-2.5c1.3-1.6,1.7-3.7,1.1-5.6l-0.9-3
				c-0.5-1.7,0.3-3.5,1.8-4.4l2.8-1.5c1.8-1,3-2.8,3.2-4.8l0.3-3.2c0.2-1.8,1.6-3.2,3.4-3.4l3.2-0.3c2-0.2,3.8-1.4,4.8-3.2l1.5-2.8
				c0.9-1.6,2.7-2.3,4.4-1.8l3,0.9c1.9,0.6,4,0.1,5.6-1.1l2.5-2c1.4-1.1,3.4-1.1,4.7,0l2.5,2c1.6,1.3,3.7,1.7,5.6,1.1l3-0.9
				c1.7-0.5,3.5,0.2,4.4,1.8l1.5,2.8c1,1.8,2.8,3,4.8,3.2l3.2,0.3c1.8,0.2,3.2,1.6,3.4,3.4l0.3,3.2c0.2,2,1.4,3.8,3.2,4.8l2.8,1.5
				c1.6,0.9,2.3,2.7,1.8,4.4l-0.9,3c-0.6,1.9-0.2,4.1,1.1,5.6L86.3,52.1z"/>
		</g>
		<g>
		</g>
	</g>
	<path class="st0" d="M44.7,19.1c-19.8,0-35.8,16-35.8,35.8s16,35.8,35.8,35.8s35.8-16,35.8-35.8C80.5,35.1,64.5,19.1,44.7,19.1z"/>
	<g id="XMLID_130_">
		<g>
			<path class="st0" d="M44.7,21.7c18.3,0,33.2,14.9,33.2,33.2C77.9,73.2,63,88,44.7,88c-18.3,0-33.2-14.8-33.2-33.2
				C11.6,36.6,26.4,21.7,44.7,21.7z"/>
		</g>
		<g>
		</g>
	</g>
	<path class="st1" d="M62.7,37.3c-0.3,0-0.6,0.1-0.9,0.4L40.7,58.7L28.6,46.6c-0.5-0.5-1.2-0.5-1.7,0L22,51.5
		c-0.5,0.5-0.5,1.2,0,1.7l17.9,17.9c0.5,0.5,1.2,0.5,1.7,0c0,0,0,0,0,0l26.9-26.9c0.5-0.5,0.5-1.2,0-1.7l-4.9-4.9
		C63.3,37.4,63,37.3,62.7,37.3L62.7,37.3z"/>
	<g id="XMLID_108_">
		<g>
			<path class="st1" d="M65.9,43.4L40.7,68.5L24.5,52.3l3.2-3.2l12.1,12.2c0.5,0.5,1.2,0.5,1.7,0l21.1-21.1L65.9,43.4z"/>
		</g>
		<g>
		</g>
	</g>
</g>
<circle class="st2" cx="45.2" cy="54.1" r="34.2"/>
<circle class="st3" cx="79.2" cy="20.7" r="18.5"/>
<rect x="66.7" y="8.3" class="st4" width="31" height="24.9"/>
<text transform="matrix(1 0 0 1 66.7354 30.4155)"><tspan x="0" y="0" class="st0 st5 st6">2</tspan><tspan x="12.9" y="0" class="st0 st7 st8">+</tspan></text>
</svg>
