<svg xmlns="http://www.w3.org/2000/svg" viewBox="0 0 103.25 103.91"><g id="Layer_2" data-name="Layer 2"><g id="Layer_1-2" data-name="Layer 1"><path d="M8.36,10.39a1.39,1.39,0,0,1-.57-.12A1.43,1.43,0,0,1,7.3,10a1.52,1.52,0,0,1-.44-1.06A1.5,1.5,0,0,1,7.3,7.83a1.54,1.54,0,0,1,2.12,0,1.5,1.5,0,0,1,.44,1.06A1.47,1.47,0,0,1,9.42,10a1.39,1.39,0,0,1-.48.32A1.47,1.47,0,0,1,8.36,10.39Z"/><path d="M19,8.89a1.5,1.5,0,0,1,1.5-1.5h0A1.5,1.5,0,0,1,22,8.89h0a1.5,1.5,0,0,1-1.5,1.5h0A1.5,1.5,0,0,1,19,8.89Z"/><path d="M32.72,10.39a1.39,1.39,0,0,1-.57-.12,1.43,1.43,0,0,1-.49-.32,1.52,1.52,0,0,1-.44-1.06,1.5,1.5,0,0,1,.44-1.06,1.37,1.37,0,0,1,.23-.19l.26-.14a1.29,1.29,0,0,1,.28-.08,1.5,1.5,0,0,1,1.79,1.47A1.47,1.47,0,0,1,33.78,10,1.5,1.5,0,0,1,32.72,10.39Z"/><path d="M101.75,17.82H1.58a1.5,1.5,0,0,1-1.5-1.5V1.5A1.5,1.5,0,0,1,1.58,0H101.75a1.5,1.5,0,0,1,1.5,1.5V16.32A1.5,1.5,0,0,1,101.75,17.82Zm-98.67-3h97.17V3H3.08Z"/><path d="M90,103.91H1.5a1.5,1.5,0,0,1-1.5-1.5V16.16a1.5,1.5,0,0,1,1.5-1.5H101.67a1.5,1.5,0,0,1,1.5,1.5V90.71a1.5,1.5,0,0,1-1.5,1.5H91.46v10.2A1.5,1.5,0,0,1,90,103.91Zm-87-3H88.46V90.71a1.5,1.5,0,0,1,1.5-1.5h10.21V17.66H3Z"/><path d="M90,103.91a1.65,1.65,0,0,1-.57-.11,1.51,1.51,0,0,1-.93-1.39V90.71a1.5,1.5,0,0,1,1.5-1.5h11.71a1.5,1.5,0,0,1,1.39.92,1.51,1.51,0,0,1-.33,1.64L91,103.47A1.51,1.51,0,0,1,90,103.91Zm1.5-11.7v6.58l6.59-6.58Z"/><path d="M50.27,68.43a1.51,1.51,0,0,1-1.36-.87l-4.52-9.72a1.51,1.51,0,0,1,2.73-1.27l3.09,6.68,4.85-11.34a1.5,1.5,0,1,1,2.75,1.18L51.65,67.52a1.48,1.48,0,0,1-1.35.91Z"/><path d="M51.23,91.65a1.51,1.51,0,0,1-1.11-.49l-4.23-4.71-5.7,2.74a1.52,1.52,0,0,1-1.22,0,1.45,1.45,0,0,1-.84-.89l-2.1-6-6.31.34a1.57,1.57,0,0,1-1.15-.44,1.48,1.48,0,0,1-.43-1.14l.34-6.32-6-2.09a1.53,1.53,0,0,1-.89-.84,1.51,1.51,0,0,1,0-1.23L24.39,65l-4.7-4.22a1.5,1.5,0,0,1-.5-1.12,1.52,1.52,0,0,1,.5-1.12l4.7-4.22-2.73-5.7a1.51,1.51,0,0,1,0-1.23,1.53,1.53,0,0,1,.89-.84l6-2.09-.34-6.32A1.48,1.48,0,0,1,28.58,37a1.54,1.54,0,0,1,1.14-.44l6.31.35,2.1-6A1.48,1.48,0,0,1,39,30a1.52,1.52,0,0,1,1.22,0l5.7,2.74,4.23-4.7a1.54,1.54,0,0,1,2.23,0l4.23,4.71L62.28,30a1.52,1.52,0,0,1,1.22,0,1.48,1.48,0,0,1,.84.89l2.1,6,6.31-.34a1.45,1.45,0,0,1,1.14.43,1.52,1.52,0,0,1,.44,1.14L74,44.41l6,2.09a1.49,1.49,0,0,1,.88.84,1.47,1.47,0,0,1,0,1.23l-2.73,5.7,4.7,4.22a1.52,1.52,0,0,1,.5,1.12,1.5,1.5,0,0,1-.5,1.12L78.08,65l2.73,5.71a1.45,1.45,0,0,1,0,1.22,1.49,1.49,0,0,1-.88.84l-6,2.1.34,6.31a1.52,1.52,0,0,1-.44,1.14,1.56,1.56,0,0,1-1.14.44l-6.31-.34-2.1,6a1.5,1.5,0,0,1-2.06.86l-5.71-2.74-4.22,4.71A1.53,1.53,0,0,1,51.23,91.65Zm-5-8.54a1.52,1.52,0,0,1,1.12.5l3.86,4.3,3.86-4.3a1.52,1.52,0,0,1,1.77-.35l5.21,2.5L64,80.31a1.51,1.51,0,0,1,1.49-1l5.77.31-.31-5.77a1.5,1.5,0,0,1,1-1.49l5.45-1.92-2.5-5.2a1.53,1.53,0,0,1,.35-1.77l4.3-3.86-4.29-3.86A1.5,1.5,0,0,1,74.88,54l2.5-5.21-5.45-1.91a1.51,1.51,0,0,1-1-1.5l.31-5.77-5.76.31a1.51,1.51,0,0,1-1.5-1l-1.91-5.45L56.86,36a1.52,1.52,0,0,1-1.77-.35l-3.86-4.3-3.86,4.3a1.48,1.48,0,0,1-1.76.35l-5.21-2.5-1.91,5.45a1.52,1.52,0,0,1-1.5,1l-5.77-.31.32,5.77a1.51,1.51,0,0,1-1,1.49l-5.44,1.92L27.58,54a1.49,1.49,0,0,1-.35,1.76l-4.3,3.86,4.3,3.86a1.5,1.5,0,0,1,.35,1.77l-2.5,5.2,5.45,1.92a1.49,1.49,0,0,1,1,1.49l-.31,5.77L37,79.31a1.54,1.54,0,0,1,1.5,1l1.91,5.45,5.21-2.5A1.46,1.46,0,0,1,46.25,83.11Z"/></g></g></svg>