<svg xmlns="http://www.w3.org/2000/svg" viewBox="0 0 100.53 101.32"><defs><style>.cls-1{fill:#0078d6;}</style></defs><g id="Layer_2" data-name="Layer 2"><g id="Layer_1-2" data-name="Layer 1"><path class="cls-1" d="M90.8,43.91V38.84a1.66,1.66,0,0,0-1.62-1.69H87.52C86.66,16.52,70.28,0,50.26,0S13.86,16.52,13,37.15H11.35a1.65,1.65,0,0,0-1.62,1.69v5.07A9.94,9.94,0,0,0,0,54V74.3A10,10,0,0,0,9.73,84.43h1.62v3.38a10,10,0,0,0,9.73,10.13H42.16v1.69a1.65,1.65,0,0,0,1.62,1.69h13a1.66,1.66,0,0,0,1.62-1.69V92.88a1.65,1.65,0,0,0-1.62-1.69h-13a1.65,1.65,0,0,0-1.62,1.69v1.69H21.08a6.65,6.65,0,0,1-6.49-6.76V84.43h6.49a1.65,1.65,0,0,0,1.62-1.69V79.37h.81a5.8,5.8,0,0,0,5.67-5.91V54.88A5.8,5.8,0,0,0,23.51,49H22.7V38.84C22.7,23,35.06,10.13,50.26,10.13S77.83,23,77.83,38.84V49H77a5.8,5.8,0,0,0-5.68,5.91V73.46A5.81,5.81,0,0,0,77,79.37h.81v3.37a1.65,1.65,0,0,0,1.62,1.69H90.8a10,10,0,0,0,9.73-10.13V54A9.94,9.94,0,0,0,90.8,43.91ZM45.4,94.57h9.73v3.37H45.4ZM77.83,76H77a2.48,2.48,0,0,1-2.44-2.53V54.88A2.48,2.48,0,0,1,77,52.35h.81Zm9.72-35.46v3.38H81.07V40.53ZM19.46,81.06H9.73A6.65,6.65,0,0,1,3.24,74.3V54a6.65,6.65,0,0,1,6.49-6.76h9.73Zm0-37.15H13V40.53h6.49Zm4.05,8.44a2.48,2.48,0,0,1,2.43,2.53V73.46A2.48,2.48,0,0,1,23.51,76H22.7V52.35ZM50.26,6.75c-16.44,0-29.92,13.49-30.76,30.4H16.25C17.1,18.38,32,3.38,50.26,3.38s33.16,15,34,33.77H81c-.85-16.91-14.32-30.4-30.77-30.4Zm47,67.55a6.63,6.63,0,0,1-6.48,6.76H81.07V47.28H90.8A6.63,6.63,0,0,1,97.28,54Z"/></g></g></svg>